<?xml version="1.0" standalone="no"?>
<!DOCTYPE svg PUBLIC "-//W3C//DTD SVG 20010904//EN"
 "http://www.w3.org/TR/2001/REC-SVG-20010904/DTD/svg10.dtd">
<svg version="1.0" xmlns="http://www.w3.org/2000/svg"
 width="700.000000pt" height="700.000000pt" viewBox="0 0 700.000000 700.000000"
 preserveAspectRatio="xMidYMid meet">
<metadata>
Created by potrace 1.14, written by Peter Selinger 2001-2017
</metadata>
<g transform="translate(0.000000,700.000000) scale(0.100000,-0.100000)"
fill="#000000" stroke="none">
<path d="M3289 6706 c-2 -2 -51 -7 -109 -11 -58 -3 -116 -8 -130 -10 -14 -1
-47 -5 -75 -9 -395 -45 -840 -173 -1196 -344 -670 -322 -1205 -824 -1517
-1422 -135 -257 -218 -516 -249 -776 -10 -76 -9 -332 0 -407 11 -83 51 -231
87 -316 118 -286 336 -515 622 -654 159 -77 330 -129 468 -142 36 -4 76 -8 90
-11 14 -2 58 -4 97 -5 l73 -1 41 -82 c167 -327 424 -556 759 -674 138 -48 292
-75 440 -75 68 -1 241 12 250 18 4 3 25 7 46 11 22 3 65 12 98 20 l59 15 30
-28 c228 -208 434 -531 566 -883 18 -47 36 -94 41 -105 8 -18 61 -185 137
-432 l28 -92 265 85 c146 47 378 121 515 165 271 86 302 99 296 120 -2 8 -14
50 -27 94 -12 44 -25 91 -28 105 -2 14 -11 57 -19 95 -33 153 -42 264 -41 495
0 107 3 207 7 223 l7 27 108 1 c665 4 1283 330 1646 867 155 229 256 490 302
782 19 119 27 455 13 565 -5 39 -11 92 -15 119 -3 27 -8 58 -10 70 -2 12 -7
37 -10 56 -38 221 -137 506 -259 745 -112 221 -266 450 -416 620 -100 114
-304 310 -409 393 -58 46 -112 90 -122 97 -89 71 -330 216 -505 304 -232 116
-625 255 -812 287 -14 3 -34 7 -43 10 -30 9 -138 28 -248 45 -36 5 -79 11 -97
14 -18 3 -63 7 -100 10 -37 3 -84 8 -103 11 -39 6 -546 15 -551 10z m477 -590
c56 -4 110 -8 120 -10 10 -2 51 -7 89 -12 39 -4 72 -9 75 -9 3 -1 25 -5 50 -9
939 -154 1703 -688 2086 -1456 86 -174 158 -382 189 -545 3 -16 8 -43 11 -60
41 -214 36 -515 -13 -710 -27 -111 -55 -185 -103 -281 -204 -399 -592 -642
-1123 -701 -147 -17 -481 -7 -611 18 -27 5 -54 9 -62 9 -16 0 -66 -155 -90
-275 -4 -22 -8 -42 -9 -45 -1 -3 -5 -32 -9 -65 -5 -33 -10 -69 -12 -80 -19
-104 -27 -619 -11 -735 4 -30 9 -69 12 -87 3 -21 -1 -33 -11 -37 -11 -4 -21 8
-35 42 -11 26 -24 56 -29 67 -5 11 -27 63 -48 115 -49 115 -140 303 -187 385
-99 172 -109 187 -204 315 -150 203 -351 385 -533 485 l-68 37 -62 -25 c-129
-52 -222 -69 -368 -70 -139 -2 -206 8 -315 44 -242 81 -426 243 -533 469 -30
64 -67 186 -75 245 -4 28 -7 30 -43 28 -81 -4 -321 -4 -374 1 -50 5 -74 8
-165 22 -48 8 -170 42 -227 64 -308 119 -484 351 -492 652 -2 80 2 139 18 238
27 174 116 407 230 600 148 252 342 474 609 697 132 110 357 252 547 345 69
34 133 65 144 70 103 51 456 163 611 194 73 14 96 18 164 30 18 3 41 7 50 9 9
2 44 6 76 10 33 4 71 9 85 11 14 2 77 6 140 10 63 3 116 7 117 8 5 4 291 -2
389 -8z"/>
<path d="M3150 5829 c-30 -3 -75 -12 -100 -19 -25 -8 -47 -14 -50 -15 -33 -7
-133 -70 -179 -112 -197 -178 -250 -454 -133 -693 43 -89 159 -211 235 -248
34 -17 46 -28 43 -40 -3 -10 -14 -71 -26 -137 -12 -66 -28 -154 -35 -195 -8
-41 -19 -104 -25 -140 -18 -124 -22 -145 -23 -147 -1 0 -15 -4 -32 -6 -77 -14
-204 -65 -233 -94 -7 -7 -17 -13 -21 -13 -6 0 -68 -60 -118 -115 -24 -25 -82
-141 -93 -185 -18 -69 -20 -80 -24 -147 -17 -283 205 -554 489 -599 221 -34
447 64 574 251 35 52 67 122 81 178 l12 44 61 2 c34 1 78 4 97 6 19 2 80 6
135 10 55 3 123 8 150 10 28 2 91 6 140 10 50 3 113 7 140 10 83 7 237 18 284
19 l44 1 17 -50 c90 -263 303 -440 590 -491 65 -12 196 -4 272 15 146 38 242
93 349 201 59 60 149 195 149 224 0 7 4 16 9 22 39 41 59 311 32 424 -72 293
-324 523 -611 557 -188 22 -343 -13 -506 -117 l-46 -29 -110 87 c-60 48 -144
114 -186 147 -43 33 -170 132 -282 219 -112 87 -251 195 -310 240 -58 45 -118
91 -133 102 l-27 22 16 43 c22 60 27 227 9 304 -56 236 -279 431 -510 444 -27
2 -52 4 -55 5 -3 1 -30 -1 -60 -5z m437 -1053 c10 -8 128 -99 263 -202 245
-187 502 -384 530 -407 9 -7 33 -25 55 -41 22 -17 70 -54 107 -83 l68 -53 -25
-53 c-14 -28 -32 -77 -40 -108 -9 -31 -21 -56 -28 -56 -6 0 -48 -3 -92 -7 -44
-3 -114 -9 -155 -12 -41 -3 -91 -8 -110 -9 -19 -2 -71 -7 -115 -10 -44 -3
-102 -8 -129 -11 -27 -2 -83 -6 -125 -9 -42 -2 -101 -7 -131 -9 -30 -3 -86 -8
-123 -11 l-68 -6 -15 38 c-45 107 -145 220 -244 276 -35 19 -56 38 -54 47 1 8
5 31 9 50 3 19 8 49 10 65 3 17 18 111 35 210 17 99 33 196 36 215 10 76 9 75
76 89 63 13 186 65 223 94 25 20 21 20 42 3z"/>
</g>
</svg>
