<svg width="20" height="12" viewBox="0 0 20 12" fill="none" xmlns="http://www.w3.org/2000/svg">
<path fill-rule="evenodd" clip-rule="evenodd" d="M2.61465 0.695648C1.17062 0.695648 0 1.86283 0 3.30329V9.39236C0 10.8325 1.16173 12 2.61465 12H17.3853C18.8294 12 20 10.8328 20 9.39236V3.30329C20 1.86313 18.8383 0.695648 17.3853 0.695648H2.61465ZM12.1739 4.17391V8.52174H11.3043V9.3913H13.913V8.52174H13.0435V4.17391H13.913V3.30434H11.3043V4.17391H12.1739ZM8.69565 6.7826H6.08696V9.3913H5.21739V6.34782V5.04347C5.21739 4.07628 5.99793 3.30434 6.96077 3.30434H7.82184C8.78791 3.30434 9.56522 4.08298 9.56522 5.04347V6.7826V9.3913H8.69565V6.7826ZM6.95561 4.17391C6.47587 4.17391 6.08696 4.55988 6.08696 5.04347V5.91304H8.69565V5.04347C8.69565 4.56323 8.31073 4.17391 7.82699 4.17391H6.95561Z" fill="black"/>
</svg>
