<svg width="1122" height="1018" viewBox="0 0 1122 1018" xmlns="http://www.w3.org/2000/svg"><path d="M2182.82,1955.31 C1935.98,1955.31 1735.16,2156.13 1735.16,2402.97 C1735.16,2649.81 1935.98,2850.63 2182.82,2850.63 C2277.3,2850.63 2367.64,2821.55 2444.05,2766.53 L2460.42,2754.76 L2692.68,2825.02 L2583.03,2604.72 L2591,2587.07 C2617.19,2529.09 2630.48,2467.15 2630.48,2402.97 C2630.48,2156.13 2429.66,1955.31 2182.82,1955.31 Z M2800.49,2916.08 L2470.6,2816.28 C2385.93,2875.38 2286.59,2906.57 2182.82,2906.57 C1905.13,2906.57 1679.21,2680.66 1679.21,2402.97 C1679.21,2125.28 1905.13,1899.37 2182.82,1899.37 C2460.5,1899.37 2686.42,2125.28 2686.42,2402.97 C2686.42,2472.72 2672.46,2540.15 2644.91,2603.5 L2800.49,2916.08 L2800.49,2916.08 Z" transform="translate(-1679 -1899)" fill="#FFF" fill-rule="evenodd"/></svg>