<svg width="1099" height="1014" viewBox="0 0 1099 1014" xmlns="http://www.w3.org/2000/svg"><path d="M5213.851,341.309 C5148.87,341.309 5083.9,366.036 5034.43,415.506 C4935.5,514.438 4935.5,675.412 5034.43,774.343 L5434.67,1177.85 L5436.31,1176.22 L5437.92,1177.83 L5838.04,774.448 C5937.08,675.412 5937.08,514.439 5838.15,415.508 C5739.21,316.578 5578.24,316.577 5479.31,415.506 L5436.29,458.53 L5393.27,415.506 C5343.811,366.047 5278.82,341.309 5213.851,341.309 Z M5438.13,1281.32 L5436.271,1279.46 L5434.431,1281.3 L4982.69,825.876 C4921.08,764.264 4887.09,682.206 4887.09,594.925 C4887.09,507.644 4921.08,425.587 4982.79,363.87 C5107.371,239.292 5308.32,236.523 5436.29,355.557 C5564.26,236.519 5765.21,239.299 5889.78,363.868 L5889.78,363.87 C6017.19,491.273 6017.19,698.575 5889.78,825.98 L5438.13,1281.32 L5438.13,1281.32 Z" transform="translate(-4887 -268)" fill="#FFF" fill-rule="evenodd"/></svg>